<svg width="36" height="28" viewBox="0 0 36 28" fill="none" xmlns="http://www.w3.org/2000/svg">
<path d="M31.0368 2.10077C28.9081 1.10649 26.6561 0.400003 24.3403 0C24.0519 0.520605 23.7149 1.22082 23.4825 1.77788C20.9857 1.40309 18.5118 1.40309 16.0609 1.77788C15.8286 1.22095 15.484 0.520605 15.1929 0C12.8748 0.400188 10.6209 1.10847 8.49123 2.10596C4.2533 8.49916 3.10443 14.7334 3.6788 20.8794C6.48967 22.9748 9.21369 24.2478 11.8918 25.0808C12.5574 24.1671 13.1458 23.1997 13.6508 22.1887C12.6892 21.8232 11.7623 21.3729 10.8809 20.8429C11.1128 20.6713 11.3393 20.4925 11.56 20.3066C16.9008 22.8004 22.7038 22.8004 27.981 20.3066C28.2026 20.4912 28.429 20.67 28.6599 20.8429C27.7771 21.3743 26.8484 21.8255 25.8849 22.1913C26.3929 23.2065 26.9802 24.1748 27.6439 25.0833C30.3246 24.2505 33.0512 22.9775 35.862 20.8794C36.5361 13.7547 34.7107 7.57757 31.0368 2.10065V2.10077ZM14.3785 17.0997C12.7752 17.0997 11.4603 15.6055 11.4603 13.786C11.4603 11.9664 12.7472 10.4697 14.3785 10.4697C16.0099 10.4697 17.3246 11.9638 17.2966 13.786C17.2992 15.6055 16.0099 17.0997 14.3785 17.0997ZM25.1623 17.0997C23.559 17.0997 22.2443 15.6055 22.2443 13.786C22.2443 11.9664 23.531 10.4697 25.1623 10.4697C26.7938 10.4697 28.1085 11.9638 28.0805 13.786C28.0805 15.6055 26.7938 17.0997 25.1623 17.0997Z" fill="#8926CF"/>
</svg>
