<svg width="28" height="28" viewBox="0 0 28 28" fill="none" xmlns="http://www.w3.org/2000/svg">
<path fill-rule="evenodd" clip-rule="evenodd" d="M8.70916 1.24367C10.0777 1.18067 10.514 1.16667 14 1.16667C17.486 1.16667 17.9223 1.18183 19.2897 1.24367C20.657 1.3055 21.5903 1.52367 22.407 1.83983C23.2622 2.163 24.038 2.66817 24.6797 3.3215C25.333 3.962 25.837 4.73667 26.159 5.593C26.4763 6.40967 26.6933 7.343 26.7563 8.708C26.8193 10.0788 26.8333 10.5152 26.8333 14C26.8333 17.486 26.8182 17.9223 26.7563 19.2908C26.6945 20.6558 26.4763 21.5892 26.159 22.4058C25.837 23.2623 25.3322 24.0382 24.6797 24.6797C24.038 25.333 23.2622 25.837 22.407 26.159C21.5903 26.4763 20.657 26.6933 19.292 26.7563C17.9223 26.8193 17.486 26.8333 14 26.8333C10.514 26.8333 10.0777 26.8182 8.70916 26.7563C7.34416 26.6945 6.41083 26.4763 5.59416 26.159C4.73774 25.837 3.96179 25.3321 3.32033 24.6797C2.66744 24.0388 2.1622 23.2632 1.83983 22.407C1.52366 21.5903 1.30666 20.657 1.24366 19.292C1.18066 17.9212 1.16666 17.4848 1.16666 14C1.16666 10.514 1.18183 10.0777 1.24366 8.71033C1.3055 7.343 1.52366 6.40967 1.83983 5.593C2.16267 4.73676 2.6683 3.9612 3.3215 3.32033C3.96204 2.66758 4.73721 2.16235 5.593 1.83983C6.40966 1.52367 7.343 1.30667 8.708 1.24367H8.70916ZM19.1858 3.55367C17.8325 3.49183 17.4265 3.479 14 3.479C10.5735 3.479 10.1675 3.49183 8.81416 3.55367C7.56233 3.61083 6.88333 3.81967 6.43066 3.99583C5.83216 4.22917 5.404 4.50567 4.95483 4.95483C4.52905 5.36906 4.20137 5.87333 3.99583 6.43067C3.81966 6.88333 3.61083 7.56233 3.55366 8.81417C3.49183 10.1675 3.479 10.5735 3.479 14C3.479 17.4265 3.49183 17.8325 3.55366 19.1858C3.61083 20.4377 3.81966 21.1167 3.99583 21.5693C4.20116 22.1258 4.529 22.631 4.95483 23.0452C5.369 23.471 5.87416 23.7988 6.43066 24.0042C6.88333 24.1803 7.56233 24.3892 8.81416 24.4463C10.1675 24.5082 10.5723 24.521 14 24.521C17.4277 24.521 17.8325 24.5082 19.1858 24.4463C20.4377 24.3892 21.1167 24.1803 21.5693 24.0042C22.1678 23.7708 22.596 23.4943 23.0452 23.0452C23.471 22.631 23.7988 22.1258 24.0042 21.5693C24.1803 21.1167 24.3892 20.4377 24.4463 19.1858C24.5082 17.8325 24.521 17.4265 24.521 14C24.521 10.5735 24.5082 10.1675 24.4463 8.81417C24.3892 7.56233 24.1803 6.88333 24.0042 6.43067C23.7708 5.83217 23.4943 5.404 23.0452 4.95483C22.6309 4.52908 22.1266 4.20141 21.5693 3.99583C21.1167 3.81967 20.4377 3.61083 19.1858 3.55367ZM12.3608 17.9562C13.2763 18.3372 14.2956 18.3887 15.2447 18.1017C16.1939 17.8147 17.014 17.2071 17.5649 16.3826C18.1158 15.5582 18.3634 14.568 18.2654 13.5813C18.1674 12.5946 17.7298 11.6725 17.0275 10.9725C16.5798 10.5251 16.0384 10.1824 15.4424 9.96934C14.8464 9.75623 14.2105 9.67792 13.5806 9.74005C12.9507 9.80218 12.3423 10.0032 11.7994 10.3287C11.2565 10.6541 10.7925 11.0959 10.4408 11.6222C10.0892 12.1484 9.85855 12.7462 9.7656 13.3723C9.67265 13.9984 9.71967 14.6373 9.90329 15.2431C10.0869 15.8489 10.4026 16.4064 10.8275 16.8755C11.2524 17.3446 11.7761 17.7137 12.3608 17.9562ZM9.33566 9.33567C9.94819 8.72314 10.6754 8.23725 11.4757 7.90575C12.276 7.57426 13.1337 7.40364 14 7.40364C14.8662 7.40364 15.724 7.57426 16.5243 7.90575C17.3246 8.23725 18.0518 8.72314 18.6643 9.33567C19.2769 9.94819 19.7627 10.6754 20.0942 11.4757C20.4257 12.276 20.5964 13.1338 20.5964 14C20.5964 14.8662 20.4257 15.724 20.0942 16.5243C19.7627 17.3246 19.2769 18.0518 18.6643 18.6643C17.4273 19.9014 15.7495 20.5964 14 20.5964C12.2505 20.5964 10.5727 19.9014 9.33566 18.6643C8.0986 17.4273 7.40363 15.7495 7.40363 14C7.40363 12.2505 8.0986 10.5727 9.33566 9.33567ZM22.0593 8.386C22.2111 8.24281 22.3326 8.07063 22.4167 7.87964C22.5007 7.68864 22.5456 7.48273 22.5486 7.27408C22.5517 7.06544 22.5128 6.8583 22.4344 6.66494C22.3559 6.47158 22.2395 6.29593 22.0919 6.14838C21.9444 6.00083 21.7687 5.88438 21.5754 5.80594C21.382 5.72749 21.1749 5.68864 20.9662 5.69168C20.7576 5.69472 20.5517 5.7396 20.3607 5.82365C20.1697 5.90769 19.9975 6.02921 19.8543 6.181C19.5759 6.4762 19.4234 6.86831 19.4293 7.27408C19.4352 7.67986 19.5991 8.06736 19.886 8.35432C20.173 8.64127 20.5605 8.8051 20.9662 8.81101C21.372 8.81693 21.7641 8.66447 22.0593 8.386Z" fill="#8926CF"/>
</svg>
