<svg width="416" height="366" viewBox="0 0 416 366" fill="none" xmlns="http://www.w3.org/2000/svg">
<path d="M202.944 0.209213C171.526 1.84749 143.804 13.6989 121.906 34.8572C90.7668 65.0086 77.7254 108.127 86.966 150.583C89.1279 160.552 92.3011 169.441 97.1829 179.166C100.984 186.765 103.843 191.47 108.62 197.814C128.95 224.898 158.171 241.978 192.134 246.614C197.748 247.381 211.801 247.695 218.008 247.172C261.247 243.512 299.185 217.787 318.678 178.887C325.094 166.094 329.278 151.594 330.952 136.291C331.545 131.167 331.545 116.353 330.987 111.369C329.627 99.4823 327.046 88.8858 323.001 78.6029C306.089 35.7286 266.651 5.68178 221.007 0.906357C215.776 0.348633 206.814 6.10352e-05 202.944 0.209213ZM219.019 6.62292C251.274 9.86464 279.972 25.5155 300.196 50.8915C313.97 68.1458 322.374 88.8161 325.024 111.891C325.582 116.737 325.582 130.889 325.024 135.943C322.478 159.053 313.587 180.386 299.046 198.337C296.221 201.858 288.236 209.979 284.365 213.326C265.082 229.883 240.534 239.817 214.904 241.421L210.964 241.665V205.762V169.894L221.181 167.001L231.398 164.142L248.833 172.055L266.303 179.967L266.686 181.919C267.488 185.719 269.825 188.751 273.312 190.529C275.09 191.435 275.648 191.54 278.612 191.54C281.367 191.54 282.204 191.401 283.563 190.703C286.179 189.414 288.236 187.392 289.491 184.813C290.537 182.756 290.642 182.163 290.642 179.514C290.642 177.005 290.503 176.238 289.631 174.39C288.48 171.846 286.039 169.371 283.563 168.255C282.238 167.628 281.262 167.489 278.612 167.489C275.683 167.489 275.055 167.593 273.346 168.465C271.533 169.336 268.779 171.846 267.907 173.379C267.593 173.972 266.512 173.519 254.342 168.011C247.089 164.7 241.057 161.946 240.987 161.877C240.638 161.563 241.51 161.249 247.089 159.646C250.332 158.705 259.538 155.916 267.558 153.406L282.134 148.875L283.668 150.06C288.968 154.069 297.128 152.814 300.859 147.341C302.533 144.971 303.126 142.635 302.951 139.463C302.672 134.688 300.196 131.098 295.768 129.041C293.257 127.891 289.526 127.786 286.702 128.762C284.086 129.669 281.088 132.492 279.832 135.315C278.995 137.163 278.821 137.999 278.821 140.614L278.786 143.681L265.536 147.794C258.248 150.025 252.25 151.838 252.18 151.803C251.971 151.629 256.469 140.405 256.783 140.3C256.992 140.265 258.318 140.021 259.712 139.812C261.107 139.603 262.885 139.115 263.653 138.697C265.71 137.651 268.081 135.141 269.127 132.875C269.929 131.167 270.069 130.435 270.069 127.751C270.069 125.033 269.929 124.37 269.092 122.627C267.767 119.943 265.745 117.957 263.025 116.702C261.107 115.796 260.34 115.621 258.039 115.621C255.737 115.621 254.97 115.796 253.052 116.702C250.332 117.957 248.31 119.943 246.985 122.627C246.148 124.37 246.008 125.033 246.008 127.751C246.008 130.435 246.148 131.167 246.95 132.875C247.438 133.956 248.589 135.594 249.46 136.466C250.367 137.337 250.995 138.243 250.855 138.453C250.716 138.662 249.321 142.217 247.752 146.365C246.148 150.478 244.648 153.999 244.369 154.138C243.812 154.452 211.905 163.48 211.348 163.48C211.069 163.48 210.964 154.243 210.964 129.146C210.964 110.253 211.034 94.8115 211.103 94.8115C211.173 94.8115 219.298 92.0578 229.131 88.7115L247.02 82.6115L248.589 84.1452C249.46 85.0166 251.134 86.1669 252.285 86.6898C254.063 87.5264 254.83 87.6658 257.341 87.6658C259.817 87.6658 260.619 87.5264 262.258 86.7595C265.013 85.4698 266.896 83.6223 268.221 80.9384C269.232 78.8818 269.371 78.2892 269.371 75.6401C269.371 72.9909 269.267 72.3983 268.221 70.3418C266.826 67.4835 264.35 65.1481 261.595 64.1372C258.841 63.0915 254.83 63.2658 252.111 64.5206C248.17 66.3681 245.52 70.2372 245.206 74.5595L245.032 76.9646L228.434 82.6115C219.298 85.7486 211.626 88.3629 211.417 88.4675C211.069 88.5721 210.964 85.4349 210.964 73.4092C210.964 59.9892 211.034 58.2115 211.487 58.2115C212.498 58.2115 215.497 56.4686 216.892 55.0744C219.158 52.8086 220.135 50.5081 220.309 47.0572C220.518 42.9092 219.647 40.6783 216.718 37.7504C214.904 35.9726 214.207 35.5195 212.219 34.8921C208.07 33.6024 204.757 34.0903 201.375 36.4258C197.957 38.7612 196.249 42.0726 196.214 46.3601C196.179 51.2749 198.864 55.5623 203.223 57.5492L205.036 58.3858V81.6355C205.036 94.4629 204.966 104.92 204.897 104.92C204.827 104.92 199.666 101.051 193.459 96.3452C187.252 91.6046 181.847 87.5264 181.464 87.2475C180.732 86.7944 180.732 86.6898 181.22 85.1212C181.917 82.8206 181.673 78.7424 180.662 76.6161C178.012 71.0389 171.735 68.2155 166.086 69.9932C158.833 72.2938 155.416 79.9275 158.554 86.8641C159.531 89.0949 161.902 91.5349 164.133 92.6852C167.69 94.4629 173.06 94.1841 176.059 92.0229L177 91.3606L191.018 101.992L205.036 112.623V152.674C205.036 174.739 204.966 192.76 204.827 192.76C204.234 192.76 182.963 177.179 182.754 176.586C182.615 176.168 181.08 167.698 179.407 157.763C176.443 140.37 176.338 139.638 176.966 139.289C178.674 138.313 180.732 136.013 181.743 133.956C182.719 131.969 182.859 131.342 182.859 128.832C182.824 123.673 180.348 119.665 175.92 117.573C174.106 116.737 173.409 116.597 170.689 116.597C167.969 116.597 167.272 116.737 165.598 117.573C163.262 118.689 160.646 121.373 159.6 123.673C158.973 124.998 158.833 125.974 158.833 128.623C158.833 131.446 158.973 132.213 159.74 133.851C161.414 137.442 165.319 140.335 168.98 140.753C169.817 140.823 170.515 140.962 170.515 141.067C170.515 141.137 171.7 148.038 173.13 156.404C174.56 164.77 175.675 171.706 175.571 171.776C175.327 172.02 173.479 170.591 148.616 151.385L142.619 146.714L143.107 145.773C143.386 145.25 143.769 143.89 143.979 142.74C144.99 137.267 142.096 131.865 136.865 129.425C135.122 128.623 134.285 128.483 131.983 128.449C129.507 128.449 128.915 128.588 126.857 129.599C124.033 130.993 121.662 133.468 120.685 136.152C119.674 138.766 119.709 142.566 120.72 145.25C121.731 148.038 124.626 150.897 127.45 151.977C130.1 152.953 133.727 153.058 135.993 152.151C136.865 151.838 137.876 151.524 138.26 151.489C138.678 151.489 145.06 156.16 154.649 163.55C163.297 170.207 178.116 181.187 187.601 187.95L204.862 200.254L204.966 220.959L205.036 241.665L200.956 241.421C162.669 239.155 128.287 218.694 107.714 185.928C98.5428 171.288 92.859 154.801 90.5925 136.117C89.9648 130.819 90.0694 115.482 90.8017 109.974C93.8005 86.9338 102.134 67.4486 116.606 49.3229C120.093 45.0006 128.392 36.6698 132.96 32.9401C151.266 18.0561 172.746 9.06293 195.97 6.65778C200.224 6.2395 214.765 6.20464 219.019 6.62292Z" fill="#4A8123"/>
<path d="M22.5609 271.398C10.5656 274.082 2.47578 285.759 3.24292 299.249C3.87058 309.427 9.10109 317.758 17.8535 322.429C18.9693 323.021 22.282 324.45 25.2459 325.566C32.0456 328.145 33.0917 328.703 34.5214 330.306C36.0905 332.119 36.6136 333.548 36.6136 336.162C36.6136 340.415 33.8588 343.796 29.6047 344.702C27.4079 345.19 25.7341 344.911 23.8163 343.831C21.0615 342.262 18.8298 338.567 18.8298 335.605V334.629H9.41492H0V335.744C0 338.149 1.0461 343.622 1.98759 346.341C3.59162 350.837 5.75356 354.288 9.06622 357.634C12.4486 361.05 15.5521 363.072 19.7016 364.466C23.6768 365.826 29.9883 366.07 34.2076 364.989C44.0409 362.549 51.6077 354.881 54.4671 344.528C55.4783 340.833 55.5829 331.875 54.6414 328.354C53.0374 322.359 50.736 318.315 46.5864 314.237C42.8902 310.577 39.717 308.765 32.9522 306.394C28.2796 304.756 24.5485 302.978 23.6419 301.967C22.7353 300.991 21.9682 298.9 21.9682 297.506C21.9682 295.833 23.084 293.741 24.4788 292.73C26.2223 291.51 29.3606 291.65 31.5226 293.009C33.1266 294.02 34.1727 295.589 34.1727 296.948C34.1727 297.68 34.2773 297.68 43.3435 297.68C48.3997 297.68 52.6189 297.61 52.6887 297.506C52.7933 297.436 52.7236 296.042 52.5841 294.473C51.538 283.354 44.1455 274.5 33.6496 271.711C30.5811 270.875 25.4203 270.735 22.5609 271.398Z" fill="#4A8123"/>
<path d="M154.3 273.141C148.547 274.151 142.409 276.801 137.702 280.286C132.785 283.911 127.415 290.43 124.486 296.251C122.708 299.841 120.72 306.255 120.093 310.577C119.36 315.701 119.569 324.241 120.581 328.877C123.824 343.831 133.518 356.031 146.21 361.12C156.95 365.407 169.643 364.606 179.441 358.994C182.196 357.425 186.625 354.009 188.577 351.987L189.728 350.767L183.382 343.657C179.895 339.753 176.931 336.406 176.756 336.232C176.617 336.058 175.571 336.72 174.455 337.731C170.34 341.391 165.214 343.169 159.531 342.925C151.476 342.541 144.955 337.94 141.049 329.923C139.027 325.74 138.434 323.091 138.434 318.35C138.434 302.107 151.545 290.534 165.807 294.194C169.05 295.031 172.188 296.704 174.664 298.935L176.512 300.573L178.326 298.517C179.372 297.401 182.336 294.09 184.916 291.231L189.658 286.003L186.904 283.319C178.36 274.953 165.947 271.084 154.3 273.141Z" fill="#4A8123"/>
<path d="M226.132 272.966C208.244 275.197 193.564 290.709 190.391 310.751C189.798 314.411 189.902 322.847 190.565 326.821C194.122 348.153 211.243 363.909 230.84 363.909C245.869 363.909 259.608 354.915 266.756 340.38C270.278 333.199 271.568 328.215 271.882 320.163C272.719 298.795 259.922 279.624 241.231 274.186C236.21 272.722 231.223 272.339 226.132 272.966ZM237.395 294.647C242.731 296.495 247.403 300.678 250.193 306.046C252.494 310.507 253.261 314.202 253.052 319.466C252.773 326.681 250.576 331.735 245.52 336.72C241.092 341.112 236.733 342.994 231.119 342.994C227.597 342.994 225.261 342.471 222.297 341.042C217.45 338.742 213.823 335.082 211.313 329.923C209.395 326.054 208.767 323.056 208.767 318.246C208.732 310.891 211.069 305.209 216.16 300.085C219.507 296.739 222.645 294.926 226.655 294.02C229.829 293.288 234.292 293.567 237.395 294.647Z" fill="#4A8123"/>
<path d="M277.566 274.221C277.531 275.162 276.38 295.658 274.985 319.814C273.591 343.97 272.44 363.769 272.475 363.804C272.51 363.839 276.764 363.909 281.959 363.909L291.34 363.943L291.444 362.27C291.688 357.599 293.292 329.33 293.397 327.727C293.432 326.716 293.571 325.845 293.641 325.74C293.78 325.635 299.395 343.308 304.974 361.469L305.776 364.083H315.226H324.64L324.989 363.037C326.105 359.447 335.799 327.657 335.799 327.483C335.799 327.378 335.973 327.309 336.148 327.309C336.357 327.309 336.496 328.319 336.496 329.644C336.496 330.969 336.88 338.986 337.368 347.526C337.856 356.066 338.24 363.281 338.24 363.56C338.24 364.013 339.495 364.083 347.69 363.978L357.105 363.874L356.895 361.19C356.791 359.726 355.779 340.45 354.629 318.42C353.478 296.355 352.432 277.045 352.327 275.441L352.118 272.583L342.459 272.653L332.835 272.757L324.571 299.597C320.038 314.377 316.097 327.169 315.888 328.11C315.644 329.017 315.365 329.749 315.226 329.749C315.086 329.749 306.752 303.606 298.035 275.79L297.023 272.583H287.295H277.566V274.221Z" fill="#4A8123"/>
<path d="M62.4174 318.42V363.909L88.7444 363.978L115.071 364.083V353.73V343.343L98.2639 343.273L81.4216 343.169L81.317 335.918L81.2473 328.703H95.021H108.795V318.246V307.789H95.021H81.2473L81.317 300.817L81.4216 293.811L98.2639 293.846H115.071V283.389V272.931H88.7444H62.4174V318.42Z" fill="#4A8123"/>
<path d="M362.998 318.49V364.083L372.412 363.978L381.827 363.874V356.763V349.652L383.501 349.443C392.149 348.397 398.042 345.609 404.075 339.718C410.002 333.966 413.768 326.611 415.128 318.106C418.267 298.691 407.84 280.077 390.545 274.256L387.232 273.141L375.132 273.001L362.998 272.897V318.49ZM387.686 295.31C391.626 297.297 395.392 302.211 396.438 306.743C396.961 309.043 396.891 313.61 396.298 315.98C395.008 320.93 391.591 325.147 387.267 327.134C385.907 327.797 384.129 328.389 383.327 328.529L381.827 328.773V311.239V293.741L383.676 293.95C384.652 294.09 386.465 294.682 387.686 295.31Z" fill="#4A8123"/>
</svg>
