<svg width="115" height="115" viewBox="0 0 115 115" fill="none" xmlns="http://www.w3.org/2000/svg">
<g clip-path="url(#clip0)">
<path fill-rule="evenodd" clip-rule="evenodd" d="M21.7896 75.5953C15.2289 75.5953 10.7065 70.1615 10.7065 62.1316C10.7065 54.0241 15.2289 48.5933 21.7896 48.5933C28.3446 48.5933 32.8728 54.0241 32.8728 62.054C32.8728 70.1615 28.3475 75.5953 21.7896 75.5953V75.5953ZM21.7896 85.767C33.9279 85.767 43.5764 75.67 43.5764 62.054C43.5764 48.5933 34.454 38.4215 21.7896 38.4215C9.65137 38.4186 0 48.5128 0 62.1288C0 75.8224 9.12237 85.7641 21.7896 85.7641" fill="#6E0AD6"/>
<path fill-rule="evenodd" clip-rule="evenodd" d="M52.5492 67.7148H73.3556C74.7902 67.7148 75.6182 66.8753 75.6182 65.4206V58.765C75.6182 57.3131 74.7902 56.4707 73.3556 56.4707H59.409V28.1692C59.409 26.7173 58.581 25.875 57.1464 25.875H50.2866C48.8549 25.875 48.024 26.7173 48.024 28.1692V63.1263C48.024 66.1106 49.6081 67.7148 52.5492 67.7148" fill="#8CE563"/>
<path fill-rule="evenodd" clip-rule="evenodd" d="M80.822 85.0799L93.3369 70.4691L105.475 85.0799C106.53 86.3794 107.887 86.3794 109.092 85.3099L113.994 80.9485C115.201 79.8761 115.351 78.5019 114.221 77.2771L100.726 61.9792L113.013 47.9809C114.069 46.7561 113.991 45.4566 112.789 44.3095L108.189 40.1034C106.982 38.9534 105.625 39.031 104.57 40.3334L93.3369 53.5641L81.8771 40.3305C80.822 39.1086 79.4621 38.9534 78.2575 40.1005L73.508 44.3842C72.3005 45.5342 72.2258 46.7561 73.3556 48.0585L85.8734 62.054L72.2258 77.4295C71.0959 78.729 71.2483 80.0314 72.4529 81.1009L77.2024 85.3099C78.4099 86.3794 79.764 86.3017 80.822 85.0799" fill="#F28000"/>
</g>
<defs>
<clipPath id="clip0">
<rect width="115" height="115" fill="white"/>
</clipPath>
</defs>
</svg>
