<svg width="28" height="28" viewBox="0 0 28 28" fill="none" xmlns="http://www.w3.org/2000/svg">
<g clip-path="url(#clip0)">
<path d="M27.4168 7.59151C27.2582 7.02594 26.9494 6.51391 26.5231 6.10984C26.0848 5.69334 25.5475 5.39542 24.9621 5.24417C22.7711 4.66667 13.9931 4.66667 13.9931 4.66667C10.3337 4.62504 6.67511 4.80816 3.03811 5.21501C2.45266 5.37742 1.91643 5.68201 1.47711 6.10167C1.04544 6.51701 0.732776 7.02917 0.569443 7.59034C0.177085 9.70404 -0.0135496 11.8502 0.000109695 14C-0.0138903 16.1478 0.176276 18.2933 0.569443 20.4097C0.729276 20.9685 1.04078 21.4783 1.47361 21.8902C1.90644 22.302 2.44544 22.5995 3.03811 22.757C5.25828 23.3333 13.9931 23.3333 13.9931 23.3333C17.6572 23.375 21.3204 23.1919 24.9621 22.785C25.5475 22.6338 26.0848 22.3358 26.5231 21.9193C26.9548 21.5075 27.2616 20.9953 27.4156 20.4377C27.8182 18.3248 28.014 16.1777 28.0001 14.0268C28.0304 11.8669 27.8349 9.70966 27.4168 7.59034V7.59151ZM11.2024 17.9947V10.0065L18.5058 14.0012L11.2024 17.9947Z" fill="#bc2298"/>
</g>
<defs>
<clipPath id="clip0">
<rect width="28" height="28" fill="white"/>
</clipPath>
</defs>
</svg>